{
    "asset" : {
        "generator" : "Khronos glTF Blender I/O v1.5.17",
        "version" : "2.0"
    },
    "extensionsUsed" : [
        "KHR_lights_punctual"
    ],
    "extensionsRequired" : [
        "KHR_lights_punctual"
    ],
    "extensions" : {
        "KHR_lights_punctual" : {
            "lights" : [
                {
                    "color" : [
                        1,
                        1,
                        1
                    ],
                    "intensity" : 1,
                    "type" : "point",
                    "name" : "Point"
                }
            ]
        }
    },
    "scene" : 0,
    "scenes" : [
        {
            "name" : "Scene",
            "nodes" : [
                0,
                1,
                3,
                5
            ]
        }
    ],
    "nodes" : [
        {
            "mesh" : 0,
            "name" : "dragon_vrip"
        },
        {
            "mesh" : 1,
            "name" : "Plane",
            "rotation" : [
                0,
                0.2605057656764984,
                0,
                0.9654722809791565
            ],
            "translation" : [
                -0.724831759929657,
                0,
                -0.9076006412506104
            ]
        },
        {
            "camera" : 0,
            "name" : "Camera_Orientation",
            "rotation" : [
                -0.7071067690849304,
                0,
                0,
                0.7071067690849304
            ]
        },
        {
            "children" : [
                2
            ],
            "name" : "Camera",
            "rotation" : [
                0.5693149566650391,
                0.21274302899837494,
                -0.15553079545497894,
                0.7787368297576904
            ],
            "translation" : [
                3.005851984024048,
                2.2660071849823,
                5.2074761390686035
            ]
        },
        {
            "extensions" : {
                "KHR_lights_punctual" : {
                    "light" : 0
                }
            },
            "name" : "Point_Orientation",
            "rotation" : [
                -0.7071067690849304,
                0,
                0,
                0.7071067690849304
            ]
        },
        {
            "children" : [
                4
            ],
            "name" : "Point",
            "translation" : [
                -0.3482016921043396,
                1.3476450443267822,
                0.931755006313324
            ]
        }
    ],
    "cameras" : [
        {
            "name" : "Camera.001",
            "perspective" : {
                "aspectRatio" : 1.7777777777777777,
                "yfov" : 0.39959652046304894,
                "zfar" : 1000,
                "znear" : 0.10000000149011612
            },
            "type" : "perspective"
        }
    ],
    "materials" : [
        {
            "doubleSided" : true,
            "name" : "Material.002",
            "normalTexture" : {
                "index" : 0
            },
            "pbrMetallicRoughness" : {
                "baseColorFactor" : [
                    0.800000011920929,
                    0.800000011920929,
                    0.800000011920929,
                    1
                ],
                "metallicFactor" : 0,
                "roughnessFactor" : 0.5
            }
        },
        {
            "doubleSided" : true,
            "name" : "Material.001",
            "normalTexture" : {
                "index" : 1
            },
            "pbrMetallicRoughness" : {
                "baseColorTexture" : {
                    "index" : 2
                },
                "metallicFactor" : 0,
                "metallicRoughnessTexture" : {
                    "index" : 3
                }
            }
        }
    ],
    "meshes" : [
        {
            "name" : "dragon_vrip",
            "primitives" : [
                {
                    "attributes" : {
                        "POSITION" : 0,
                        "NORMAL" : 1,
                        "TANGENT" : 2,
                        "TEXCOORD_0" : 3
                    },
                    "indices" : 4,
                    "material" : 0
                }
            ]
        },
        {
            "name" : "Plane",
            "primitives" : [
                {
                    "attributes" : {
                        "POSITION" : 5,
                        "NORMAL" : 6,
                        "TANGENT" : 7,
                        "TEXCOORD_0" : 8
                    },
                    "indices" : 9,
                    "material" : 1
                }
            ]
        }
    ],
    "textures" : [
        {
            "sampler" : 0,
            "source" : 0
        },
        {
            "sampler" : 0,
            "source" : 1
        },
        {
            "sampler" : 0,
            "source" : 2
        },
        {
            "sampler" : 0,
            "source" : 3
        }
    ],
    "images" : [
        {
            "mimeType" : "image/png",
            "name" : "low_poly_None_Normal.1001",
            "uri" : "low_poly_None_Normal_1001.png"
        },
        {
            "mimeType" : "image/jpeg",
            "name" : "PavingStones070_1K_Normal",
            "uri" : "PavingStones070_1K_Normal.jpg"
        },
        {
            "mimeType" : "image/jpeg",
            "name" : "PavingStones070_1K_Color",
            "uri" : "PavingStones070_1K_Color.jpg"
        },
        {
            "mimeType" : "image/png",
            "name" : "PavingStones070_1K_Roughness",
            "uri" : "PavingStones070_1K_Roughness.png"
        }
    ],
    "accessors" : [
        {
            "bufferView" : 0,
            "componentType" : 5126,
            "count" : 124564,
            "max" : [
                0.9622473120689392,
                1.4535142183303833,
                0.41083744168281555
            ],
            "min" : [
                -1.0805662870407104,
                0.011268102563917637,
                -0.5025545954704285
            ],
            "type" : "VEC3"
        },
        {
            "bufferView" : 1,
            "componentType" : 5126,
            "count" : 124564,
            "type" : "VEC3"
        },
        {
            "bufferView" : 2,
            "componentType" : 5126,
            "count" : 124564,
            "type" : "VEC4"
        },
        {
            "bufferView" : 3,
            "componentType" : 5126,
            "count" : 124564,
            "type" : "VEC2"
        },
        {
            "bufferView" : 4,
            "componentType" : 5125,
            "count" : 636012,
            "type" : "SCALAR"
        },
        {
            "bufferView" : 5,
            "componentType" : 5126,
            "count" : 4,
            "max" : [
                4,
                0,
                4
            ],
            "min" : [
                -4,
                0,
                -4
            ],
            "type" : "VEC3"
        },
        {
            "bufferView" : 6,
            "componentType" : 5126,
            "count" : 4,
            "type" : "VEC3"
        },
        {
            "bufferView" : 7,
            "componentType" : 5126,
            "count" : 4,
            "type" : "VEC4"
        },
        {
            "bufferView" : 8,
            "componentType" : 5126,
            "count" : 4,
            "type" : "VEC2"
        },
        {
            "bufferView" : 9,
            "componentType" : 5123,
            "count" : 6,
            "type" : "SCALAR"
        }
    ],
    "bufferViews" : [
        {
            "buffer" : 0,
            "byteLength" : 1494768,
            "byteOffset" : 0
        },
        {
            "buffer" : 0,
            "byteLength" : 1494768,
            "byteOffset" : 1494768
        },
        {
            "buffer" : 0,
            "byteLength" : 1993024,
            "byteOffset" : 2989536
        },
        {
            "buffer" : 0,
            "byteLength" : 996512,
            "byteOffset" : 4982560
        },
        {
            "buffer" : 0,
            "byteLength" : 2544048,
            "byteOffset" : 5979072
        },
        {
            "buffer" : 0,
            "byteLength" : 48,
            "byteOffset" : 8523120
        },
        {
            "buffer" : 0,
            "byteLength" : 48,
            "byteOffset" : 8523168
        },
        {
            "buffer" : 0,
            "byteLength" : 64,
            "byteOffset" : 8523216
        },
        {
            "buffer" : 0,
            "byteLength" : 32,
            "byteOffset" : 8523280
        },
        {
            "buffer" : 0,
            "byteLength" : 12,
            "byteOffset" : 8523312
        }
    ],
    "samplers" : [
        {
            "magFilter" : 9729,
            "minFilter" : 9987
        }
    ],
    "buffers" : [
        {
            "byteLength" : 8523324,
            "uri" : "dragon_scene.bin"
        }
    ]
}
