{
    "asset" : {
        "generator" : "Khronos glTF Blender I/O v1.5.17",
        "version" : "2.0"
    },
    "scene" : 0,
    "scenes" : [
        {
            "name" : "Scene",
            "nodes" : [
                2,
                3,
                5
            ]
        }
    ],
    "nodes" : [
        {
            "mesh" : 0,
            "name" : "Cash_register.001"
        },
        {
            "mesh" : 1,
            "name" : "Cash_Register_Glass",
            "scale" : [
                0.9093888998031616,
                0.9093888998031616,
                0.9093888998031616
            ],
            "translation" : [
                -0.017514081671833992,
                -0.39995142817497253,
                0.07543126493692398
            ]
        },
        {
            "children" : [
                0,
                1
            ],
            "mesh" : 2,
            "name" : "CashRegister_01",
            "rotation" : [
                0.7071068286895752,
                0,
                0,
                0.7071067094802856
            ],
            "translation" : [
                0.017514081671833992,
                0.07543119788169861,
                0.39995142817497253
            ]
        },
        {
            "mesh" : 3,
            "name" : "Plane"
        },
        {
            "camera" : 0,
            "name" : "Camera_Orientation",
            "rotation" : [
                -0.7071067690849304,
                0,
                0,
                0.7071067690849304
            ]
        },
        {
            "children" : [
                4
            ],
            "name" : "Camera",
            "rotation" : [
                0.4686906039714813,
                0.2744561731815338,
                -0.15591254830360413,
                0.8250419497489929
            ],
            "translation" : [
                2.1587116718292236,
                2.057455062866211,
                2.90303373336792
            ]
        }
    ],
    "cameras" : [
        {
            "name" : "Camera",
            "perspective" : {
                "aspectRatio" : 1.7777777777777777,
                "yfov" : 0.39959652046304894,
                "zfar" : 1000,
                "znear" : 0.10000000149011612
            },
            "type" : "perspective"
        }
    ],
    "materials" : [
        {
            "doubleSided" : true,
            "name" : "CashRegister_01",
            "normalTexture" : {
                "index" : 0
            },
            "pbrMetallicRoughness" : {
                "baseColorTexture" : {
                    "index" : 1
                },
                "metallicRoughnessTexture" : {
                    "index" : 2
                }
            }
        },
        {
            "alphaMode" : "BLEND",
            "doubleSided" : true,
            "name" : "Cash_Register_glass",
            "normalTexture" : {
                "index" : 3
            },
            "pbrMetallicRoughness" : {
                "baseColorTexture" : {
                    "index" : 4
                },
                "metallicFactor" : 0,
                "metallicRoughnessTexture" : {
                    "index" : 5
                }
            }
        },
        {
            "doubleSided" : true,
            "name" : "Material",
            "normalTexture" : {
                "index" : 6
            },
            "pbrMetallicRoughness" : {
                "baseColorTexture" : {
                    "index" : 7
                },
                "metallicFactor" : 0,
                "metallicRoughnessTexture" : {
                    "index" : 8
                }
            }
        }
    ],
    "meshes" : [
        {
            "name" : "Cash_register.001",
            "primitives" : [
                {
                    "attributes" : {
                        "POSITION" : 0,
                        "NORMAL" : 1,
                        "TANGENT" : 2,
                        "TEXCOORD_0" : 3
                    },
                    "indices" : 4,
                    "material" : 0
                }
            ]
        },
        {
            "name" : "Cash_Register_Glass",
            "primitives" : [
                {
                    "attributes" : {
                        "POSITION" : 5,
                        "NORMAL" : 6,
                        "TANGENT" : 7,
                        "TEXCOORD_0" : 8
                    },
                    "indices" : 9,
                    "material" : 1
                }
            ]
        },
        {
            "name" : "Cash_register",
            "primitives" : [
                {
                    "attributes" : {
                        "POSITION" : 10,
                        "NORMAL" : 11,
                        "TANGENT" : 12,
                        "TEXCOORD_0" : 13
                    },
                    "indices" : 14,
                    "material" : 0
                }
            ]
        },
        {
            "name" : "Plane",
            "primitives" : [
                {
                    "attributes" : {
                        "POSITION" : 15,
                        "NORMAL" : 16,
                        "TANGENT" : 17,
                        "TEXCOORD_0" : 18
                    },
                    "indices" : 19,
                    "material" : 2
                }
            ]
        }
    ],
    "textures" : [
        {
            "sampler" : 0,
            "source" : 0
        },
        {
            "sampler" : 0,
            "source" : 1
        },
        {
            "sampler" : 0,
            "source" : 2
        },
        {
            "sampler" : 0,
            "source" : 3
        },
        {
            "sampler" : 0,
            "source" : 4
        },
        {
            "sampler" : 0,
            "source" : 5
        },
        {
            "sampler" : 0,
            "source" : 6
        },
        {
            "sampler" : 0,
            "source" : 7
        },
        {
            "sampler" : 0,
            "source" : 8
        }
    ],
    "images" : [
        {
            "mimeType" : "image/png",
            "name" : "CashRegister_01_NormalDirectX",
            "uri" : "CashRegister_01_NormalDirectX.png"
        },
        {
            "mimeType" : "image/png",
            "name" : "CashRegister_01_Diffuse",
            "uri" : "CashRegister_01_Diffuse.png"
        },
        {
            "mimeType" : "image/png",
            "name" : "CashRegister_01_Metallic-CashRegister_01_Roughness",
            "uri" : "CashRegister_01_Metallic-CashRegister_01_Roughness.png"
        },
        {
            "mimeType" : "image/png",
            "name" : "CashRegister_01_Glass_NormalDirectX",
            "uri" : "CashRegister_01_Glass_NormalDirectX.png"
        },
        {
            "mimeType" : "image/png",
            "name" : "CashRegister_01_Glass_Diffuse-CashRegister_01_Glass_Opacity",
            "uri" : "CashRegister_01_Glass_Diffuse-CashRegister_01_Glass_Opacity.png"
        },
        {
            "mimeType" : "image/png",
            "name" : "CashRegister_01_Glass_Roughness",
            "uri" : "CashRegister_01_Glass_Roughness.png"
        },
        {
            "mimeType" : "image/jpeg",
            "name" : "Tiles032_1K_Normal",
            "uri" : "Tiles032_1K_Normal.jpg"
        },
        {
            "mimeType" : "image/jpeg",
            "name" : "Tiles032_1K_Color",
            "uri" : "Tiles032_1K_Color.jpg"
        },
        {
            "mimeType" : "image/png",
            "name" : "Tiles032_1K_Roughness",
            "uri" : "Tiles032_1K_Roughness.png"
        }
    ],
    "accessors" : [
        {
            "bufferView" : 0,
            "componentType" : 5126,
            "count" : 1276,
            "max" : [
                0.21038341522216797,
                0.018688678741455078,
                0.053649574518203735
            ],
            "min" : [
                -0.21038280427455902,
                -0.308601438999176,
                -0.05325459688901901
            ],
            "type" : "VEC3"
        },
        {
            "bufferView" : 1,
            "componentType" : 5126,
            "count" : 1276,
            "type" : "VEC3"
        },
        {
            "bufferView" : 2,
            "componentType" : 5126,
            "count" : 1276,
            "type" : "VEC4"
        },
        {
            "bufferView" : 3,
            "componentType" : 5126,
            "count" : 1276,
            "type" : "VEC2"
        },
        {
            "bufferView" : 4,
            "componentType" : 5123,
            "count" : 3000,
            "type" : "SCALAR"
        },
        {
            "bufferView" : 5,
            "componentType" : 5126,
            "count" : 12,
            "max" : [
                0.21108709275722504,
                -0.024706009775400162,
                -0.6209172606468201
            ],
            "min" : [
                -0.16830207407474518,
                -0.15984007716178894,
                -0.6704733371734619
            ],
            "type" : "VEC3"
        },
        {
            "bufferView" : 6,
            "componentType" : 5126,
            "count" : 12,
            "type" : "VEC3"
        },
        {
            "bufferView" : 7,
            "componentType" : 5126,
            "count" : 12,
            "type" : "VEC4"
        },
        {
            "bufferView" : 8,
            "componentType" : 5126,
            "count" : 12,
            "type" : "VEC2"
        },
        {
            "bufferView" : 9,
            "componentType" : 5123,
            "count" : 18,
            "type" : "SCALAR"
        },
        {
            "bufferView" : 10,
            "componentType" : 5126,
            "count" : 8035,
            "max" : [
                0.35779455304145813,
                -0.1373743712902069,
                0.07325145602226257
            ],
            "min" : [
                -0.242696151137352,
                -0.5734419822692871,
                -0.5481042265892029
            ],
            "type" : "VEC3"
        },
        {
            "bufferView" : 11,
            "componentType" : 5126,
            "count" : 8035,
            "type" : "VEC3"
        },
        {
            "bufferView" : 12,
            "componentType" : 5126,
            "count" : 8035,
            "type" : "VEC4"
        },
        {
            "bufferView" : 13,
            "componentType" : 5126,
            "count" : 8035,
            "type" : "VEC2"
        },
        {
            "bufferView" : 14,
            "componentType" : 5123,
            "count" : 26763,
            "type" : "SCALAR"
        },
        {
            "bufferView" : 15,
            "componentType" : 5126,
            "count" : 4,
            "max" : [
                1,
                0,
                1
            ],
            "min" : [
                -1,
                0,
                -1
            ],
            "type" : "VEC3"
        },
        {
            "bufferView" : 16,
            "componentType" : 5126,
            "count" : 4,
            "type" : "VEC3"
        },
        {
            "bufferView" : 17,
            "componentType" : 5126,
            "count" : 4,
            "type" : "VEC4"
        },
        {
            "bufferView" : 18,
            "componentType" : 5126,
            "count" : 4,
            "type" : "VEC2"
        },
        {
            "bufferView" : 19,
            "componentType" : 5123,
            "count" : 6,
            "type" : "SCALAR"
        }
    ],
    "bufferViews" : [
        {
            "buffer" : 0,
            "byteLength" : 15312,
            "byteOffset" : 0
        },
        {
            "buffer" : 0,
            "byteLength" : 15312,
            "byteOffset" : 15312
        },
        {
            "buffer" : 0,
            "byteLength" : 20416,
            "byteOffset" : 30624
        },
        {
            "buffer" : 0,
            "byteLength" : 10208,
            "byteOffset" : 51040
        },
        {
            "buffer" : 0,
            "byteLength" : 6000,
            "byteOffset" : 61248
        },
        {
            "buffer" : 0,
            "byteLength" : 144,
            "byteOffset" : 67248
        },
        {
            "buffer" : 0,
            "byteLength" : 144,
            "byteOffset" : 67392
        },
        {
            "buffer" : 0,
            "byteLength" : 192,
            "byteOffset" : 67536
        },
        {
            "buffer" : 0,
            "byteLength" : 96,
            "byteOffset" : 67728
        },
        {
            "buffer" : 0,
            "byteLength" : 36,
            "byteOffset" : 67824
        },
        {
            "buffer" : 0,
            "byteLength" : 96420,
            "byteOffset" : 67860
        },
        {
            "buffer" : 0,
            "byteLength" : 96420,
            "byteOffset" : 164280
        },
        {
            "buffer" : 0,
            "byteLength" : 128560,
            "byteOffset" : 260700
        },
        {
            "buffer" : 0,
            "byteLength" : 64280,
            "byteOffset" : 389260
        },
        {
            "buffer" : 0,
            "byteLength" : 53526,
            "byteOffset" : 453540
        },
        {
            "buffer" : 0,
            "byteLength" : 48,
            "byteOffset" : 507068
        },
        {
            "buffer" : 0,
            "byteLength" : 48,
            "byteOffset" : 507116
        },
        {
            "buffer" : 0,
            "byteLength" : 64,
            "byteOffset" : 507164
        },
        {
            "buffer" : 0,
            "byteLength" : 32,
            "byteOffset" : 507228
        },
        {
            "buffer" : 0,
            "byteLength" : 12,
            "byteOffset" : 507260
        }
    ],
    "samplers" : [
        {
            "magFilter" : 9729,
            "minFilter" : 9987
        }
    ],
    "buffers" : [
        {
            "byteLength" : 507272,
            "uri" : "cash_register.bin"
        }
    ]
}
